<mxfile host="app.diagrams.net" agent="Mozilla/5.0 (Windows NT 10.0; Win64; x64) AppleWebKit/537.36 (KHTML, like Gecko) Chrome/131.0.0.0 Safari/537.36 Edg/131.0.0.0" version="25.0.1">
  <diagram id="C5RBs43oDa-KdzZeNtuy" name="Page-1">
    <mxGraphModel dx="872" dy="469" grid="1" gridSize="10" guides="1" tooltips="1" connect="1" arrows="1" fold="1" page="1" pageScale="1" pageWidth="827" pageHeight="1169" math="0" shadow="0">
      <root>
        <mxCell id="WIyWlLk6GJQsqaUBKTNV-0" />
        <mxCell id="WIyWlLk6GJQsqaUBKTNV-1" parent="WIyWlLk6GJQsqaUBKTNV-0" />
        <mxCell id="hPzvSaIItI-cAqv3PKmr-2" value="" style="edgeStyle=orthogonalEdgeStyle;rounded=0;orthogonalLoop=1;jettySize=auto;html=1;" edge="1" parent="WIyWlLk6GJQsqaUBKTNV-1" source="hPzvSaIItI-cAqv3PKmr-0" target="hPzvSaIItI-cAqv3PKmr-1">
          <mxGeometry relative="1" as="geometry" />
        </mxCell>
        <mxCell id="hPzvSaIItI-cAqv3PKmr-0" value="Crear las sedes" style="rounded=1;whiteSpace=wrap;html=1;" vertex="1" parent="WIyWlLk6GJQsqaUBKTNV-1">
          <mxGeometry x="40" y="40" width="120" height="60" as="geometry" />
        </mxCell>
        <mxCell id="hPzvSaIItI-cAqv3PKmr-4" value="" style="edgeStyle=orthogonalEdgeStyle;rounded=0;orthogonalLoop=1;jettySize=auto;html=1;" edge="1" parent="WIyWlLk6GJQsqaUBKTNV-1" source="hPzvSaIItI-cAqv3PKmr-1" target="hPzvSaIItI-cAqv3PKmr-3">
          <mxGeometry relative="1" as="geometry" />
        </mxCell>
        <mxCell id="hPzvSaIItI-cAqv3PKmr-1" value="Crear los fundos" style="rounded=1;whiteSpace=wrap;html=1;" vertex="1" parent="WIyWlLk6GJQsqaUBKTNV-1">
          <mxGeometry x="40" y="140" width="120" height="60" as="geometry" />
        </mxCell>
        <mxCell id="hPzvSaIItI-cAqv3PKmr-6" value="" style="edgeStyle=orthogonalEdgeStyle;rounded=0;orthogonalLoop=1;jettySize=auto;html=1;" edge="1" parent="WIyWlLk6GJQsqaUBKTNV-1" source="hPzvSaIItI-cAqv3PKmr-3" target="hPzvSaIItI-cAqv3PKmr-5">
          <mxGeometry relative="1" as="geometry" />
        </mxCell>
        <mxCell id="hPzvSaIItI-cAqv3PKmr-3" value="Crear lotes de fundos" style="rounded=1;whiteSpace=wrap;html=1;" vertex="1" parent="WIyWlLk6GJQsqaUBKTNV-1">
          <mxGeometry x="240" y="140" width="120" height="60" as="geometry" />
        </mxCell>
        <mxCell id="hPzvSaIItI-cAqv3PKmr-8" value="" style="edgeStyle=orthogonalEdgeStyle;rounded=0;orthogonalLoop=1;jettySize=auto;html=1;" edge="1" parent="WIyWlLk6GJQsqaUBKTNV-1" source="hPzvSaIItI-cAqv3PKmr-5" target="hPzvSaIItI-cAqv3PKmr-7">
          <mxGeometry relative="1" as="geometry" />
        </mxCell>
        <mxCell id="hPzvSaIItI-cAqv3PKmr-5" value="Crear de sublotes de lotes" style="rounded=1;whiteSpace=wrap;html=1;" vertex="1" parent="WIyWlLk6GJQsqaUBKTNV-1">
          <mxGeometry x="440" y="140" width="120" height="60" as="geometry" />
        </mxCell>
        <mxCell id="hPzvSaIItI-cAqv3PKmr-7" value="La variedad de sublote" style="rounded=1;whiteSpace=wrap;html=1;" vertex="1" parent="WIyWlLk6GJQsqaUBKTNV-1">
          <mxGeometry x="440" y="40" width="120" height="60" as="geometry" />
        </mxCell>
        <mxCell id="hPzvSaIItI-cAqv3PKmr-13" style="edgeStyle=orthogonalEdgeStyle;rounded=0;orthogonalLoop=1;jettySize=auto;html=1;entryX=0.5;entryY=1;entryDx=0;entryDy=0;" edge="1" parent="WIyWlLk6GJQsqaUBKTNV-1" source="hPzvSaIItI-cAqv3PKmr-10" target="hPzvSaIItI-cAqv3PKmr-11">
          <mxGeometry relative="1" as="geometry" />
        </mxCell>
        <mxCell id="hPzvSaIItI-cAqv3PKmr-10" value="Sensores" style="rounded=1;whiteSpace=wrap;html=1;" vertex="1" parent="WIyWlLk6GJQsqaUBKTNV-1">
          <mxGeometry x="580" y="525" width="120" height="60" as="geometry" />
        </mxCell>
        <mxCell id="hPzvSaIItI-cAqv3PKmr-11" value="DetalleSensores" style="rounded=1;whiteSpace=wrap;html=1;" vertex="1" parent="WIyWlLk6GJQsqaUBKTNV-1">
          <mxGeometry x="580" y="420" width="120" height="60" as="geometry" />
        </mxCell>
        <mxCell id="hPzvSaIItI-cAqv3PKmr-17" value="Humedad1:35%&lt;div&gt;Temperatu1:23째C&lt;/div&gt;" style="text;html=1;align=center;verticalAlign=middle;resizable=0;points=[];autosize=1;strokeColor=none;fillColor=none;" vertex="1" parent="WIyWlLk6GJQsqaUBKTNV-1">
          <mxGeometry x="700" y="430" width="120" height="40" as="geometry" />
        </mxCell>
        <mxCell id="hPzvSaIItI-cAqv3PKmr-18" value="LECTURAS" style="swimlane;fontStyle=0;childLayout=stackLayout;horizontal=1;startSize=30;horizontalStack=0;resizeParent=1;resizeParentMax=0;resizeLast=0;collapsible=1;marginBottom=0;whiteSpace=wrap;html=1;" vertex="1" parent="WIyWlLk6GJQsqaUBKTNV-1">
          <mxGeometry x="340" y="320" width="140" height="120" as="geometry" />
        </mxCell>
        <mxCell id="hPzvSaIItI-cAqv3PKmr-19" value="HUMEDAD1: 57%&lt;div&gt;temperatura1: 24째C&lt;/div&gt;" style="text;strokeColor=none;fillColor=none;align=left;verticalAlign=middle;spacingLeft=4;spacingRight=4;overflow=hidden;points=[[0,0.5],[1,0.5]];portConstraint=eastwest;rotatable=0;whiteSpace=wrap;html=1;" vertex="1" parent="hPzvSaIItI-cAqv3PKmr-18">
          <mxGeometry y="30" width="140" height="30" as="geometry" />
        </mxCell>
        <mxCell id="hPzvSaIItI-cAqv3PKmr-20" value="HUMEDAD2: 57%&lt;div&gt;temperatura2: 24째C&lt;/div&gt;" style="text;strokeColor=none;fillColor=none;align=left;verticalAlign=middle;spacingLeft=4;spacingRight=4;overflow=hidden;points=[[0,0.5],[1,0.5]];portConstraint=eastwest;rotatable=0;whiteSpace=wrap;html=1;" vertex="1" parent="hPzvSaIItI-cAqv3PKmr-18">
          <mxGeometry y="60" width="140" height="30" as="geometry" />
        </mxCell>
        <mxCell id="hPzvSaIItI-cAqv3PKmr-21" value="HUMEDAD3: 57%&lt;div&gt;temperatura3: 24째C&lt;/div&gt;" style="text;strokeColor=none;fillColor=none;align=left;verticalAlign=middle;spacingLeft=4;spacingRight=4;overflow=hidden;points=[[0,0.5],[1,0.5]];portConstraint=eastwest;rotatable=0;whiteSpace=wrap;html=1;" vertex="1" parent="hPzvSaIItI-cAqv3PKmr-18">
          <mxGeometry y="90" width="140" height="30" as="geometry" />
        </mxCell>
      </root>
    </mxGraphModel>
  </diagram>
</mxfile>
